<svg width="737" height="315" viewBox="0 0 737 315" fill="none" xmlns="http://www.w3.org/2000/svg">
<path fill-rule="evenodd" clip-rule="evenodd" d="M663.483 112.192L663.493 112.171C663.986 111.185 664.454 110.247 664.903 109.371C664.45 110.254 663.98 111.197 663.483 112.192Z" fill="white"/>
<path fill-rule="evenodd" clip-rule="evenodd" d="M664.903 109.371C664.45 110.254 663.98 111.197 663.483 112.192C660.14 118.889 656.465 125.871 648.403 135.371C634.4 151.871 623.275 161.938 602.9 160.371C589.9 159.371 574.9 150.371 570.903 140.871C568.919 136.157 567.6 130.691 567.106 127.249C567.034 126.741 566.967 126.278 566.903 125.871C564.491 128.283 562.468 130.524 560.514 132.688L560.042 133.212C556.466 137.176 552.676 141.376 547.9 145.871C539.4 153.871 527.4 162.871 513.403 162.871C503.338 162.871 495.981 162.026 488.903 154.871C484.564 150.484 482.808 144.4 481.567 140.098C481.332 139.284 481.115 138.533 480.903 137.871C480.903 137.871 471.986 148.866 464.983 155.564C457.981 162.262 452.11 167.48 441.903 167.871C433.201 168.203 426.386 167.136 420.903 160.371C413.939 151.777 418.986 141.694 421.769 136.134L421.9 135.871L422.403 134.865C425.091 129.486 426.706 126.253 429.9 120.871C431.583 118.035 432.867 116.03 434.216 113.922C435.186 112.407 436.19 110.839 437.4 108.871C440.874 103.224 446.172 94.3366 446.172 94.3366C446.172 94.3366 446.583 93.4602 446.801 93.0009C448.877 88.6244 451.471 83.1545 448.903 81.8705C446.503 80.6705 439.57 80.3705 436.403 80.3705C432.903 87.3708 428.304 96.2846 422.903 106.371C420.049 111.7 417.588 116.515 415.271 121.046C403.9 141.871 398.934 150.404 393.903 157.371C393.055 158.545 392.228 159.717 391.412 160.874C384.306 170.946 377.867 179.371 365.403 179.371C355.403 179.371 351.047 178.063 346.903 171.371C344.511 167.508 344.701 162.895 344.844 159.431C344.875 158.685 344.903 157.991 344.903 157.371C337.403 169.371 324.901 188.371 307.403 188.371C293.728 188.371 288.4 177.046 288.4 163.371C288.4 139.871 298.4 117.751 309.781 102.242C322.401 85.0442 338.519 71.3706 355.403 71.3706C366.072 71.3706 368.964 74.4947 372.001 77.7738C372.663 78.4896 373.333 79.2127 374.092 79.9124C375.146 80.8843 376.082 81.7472 376.903 82.3706C377.312 82.068 377.704 81.762 378.089 81.4608C380.413 79.6437 382.509 78.0045 386.903 78.3706C392.903 78.8706 397.486 85.2421 392.403 95.8706C391.953 96.8118 391.456 97.8467 390.922 98.9581C384.933 111.429 375.281 133.742 373.403 140.871C371.525 147.999 371.903 162.871 381.403 151.371C390.903 139.871 407.781 117.742 416.903 100.871C421.707 91.9848 423.856 87.8334 425.3 85.0442C426.597 82.5391 427.326 81.1308 428.903 78.3706C428.059 77.8704 427.142 77.3799 426.189 76.8705C422.064 74.6646 417.278 72.1051 414.903 66.8706C410.513 57.1966 414.872 47.8245 422.903 40.8706C430.934 33.9167 438.142 30.3645 445.903 35.3706C454.928 41.1921 448.903 56.3705 445.4 63.3709C449.4 65.3708 452.9 66.8706 458.4 68.8707C465.016 71.2766 471.224 74.8707 472.4 80.3705C474.065 88.1559 470.568 94.7141 466.76 101.855C465.973 103.33 465.173 104.83 464.403 106.371C458.176 118.824 452.403 132.371 450.903 139.371C449.403 146.37 454.903 152.871 462.403 146.371C469.903 139.87 480.903 127.371 480.903 127.371C481.403 122.871 483.851 112.734 487.403 103.371C492.903 88.8707 505.903 67.3705 517.403 56.3705C528.903 45.3706 548.403 38.8706 561.403 46.3705C574.403 53.8705 575.448 67.8707 568.903 75.8705C559.903 86.8707 551.403 86.3704 550.403 84.3705C549.684 82.9322 552.178 78.7423 553.785 76.0426L555.785 72.6737C557.257 70.2496 559.149 67.1334 559.903 64.8706C560.903 61.8706 560.903 58.3706 555.403 56.3705C549.903 54.3704 543.903 56.3704 535.403 68.8705C521.903 88.7237 512.749 110.871 511.403 128.371C510.903 134.871 511.353 141.596 515.903 143.871C520.903 146.371 532.054 147.675 540.9 140.871C549.746 134.066 560.9 121.871 565.403 114.371C566.903 100.871 576.403 81.8705 585.903 68.8705C595.403 55.8705 617.903 35.3706 637.403 35.3706C650.686 35.3706 660.61 38.6132 668.403 49.3705C674.516 57.8093 675.506 64.8563 675.4 75.3707C675.347 80.7001 675.052 83.8035 673.4 88.8707C672.614 91.2842 670.9 95.8707 669.9 98.3707C673.4 98.8707 678.339 98.0398 683.4 96.3707C689.319 94.419 692.363 92.0961 697.125 88.4619C697.378 88.2686 697.637 88.0716 697.9 87.8707C706.685 81.1796 716.457 66.535 716.457 66.535C716.813 66.0142 717.089 65.5954 717.368 65.173C717.538 64.9149 717.71 64.6555 717.9 64.3707C719.083 62.6038 721.903 57.8705 721.903 57.8705L722.495 56.9228C722.495 56.9228 725.824 51.5283 729.403 52.8705C733.403 54.3705 738.903 67.8705 735.903 73.8705C732.903 79.8705 717.204 95.8454 700.903 102.871C689.252 107.891 675.424 108.727 667.572 109.201C666.582 109.26 665.687 109.315 664.903 109.371ZM318.903 164.871C311.903 161.371 315.403 145.371 316.403 142.371C317.403 139.371 330.903 107.871 337.403 100.871L337.454 100.816C337.796 100.447 338.155 100.058 338.518 99.6649L338.538 99.6439C345.075 92.5665 354.797 82.0395 361.403 84.8705C367.726 87.5802 365.074 93.1453 362.291 98.9867C361.993 99.6125 361.693 100.242 361.403 100.871C358.403 107.371 340.403 143.871 337.403 148.371C337.044 148.908 336.607 149.603 336.103 150.404C332.392 156.305 325.066 167.952 318.903 164.871ZM647.25 94.7358C650.393 88.9934 656.652 77.5597 653.9 66.8708L653.861 66.7191C651.81 58.7514 649.899 51.3265 641.9 49.3705C633.01 47.1966 624.637 54.516 620.9 62.8707C616.928 71.751 620.394 79.7309 626.903 86.8705C632.62 93.1421 637.403 95.3705 646.903 95.3705C647.014 95.1675 647.129 94.9559 647.25 94.7358ZM599.4 93.3707C595.319 101.221 592.4 107.871 590.9 114.371C588.289 125.688 588.893 137.927 599.403 142.871C610.006 147.858 619.152 139.658 626.903 130.871C633.827 123.02 636.307 118.059 640.178 110.316L640.4 109.871C639.97 109.705 639.543 109.542 639.119 109.38C633.134 107.089 627.744 105.027 622.4 100.871C614.803 94.963 611.43 88.9233 607.249 81.4396L607.195 81.3419L606.9 80.8707C605.86 82.4302 602.026 88.3198 599.4 93.3707Z" fill="white"/>
<path d="M36.523 160C48.0638 161.236 57.023 155.833 60.023 153.5C62.5943 151.5 62.0229 148.5 57.0229 147.5C53.7339 146.842 43.6817 151.084 36.523 147.5C25.6919 142.078 23.4004 130.871 25.523 118.5C30.0585 92.0664 40.2035 78.0444 58.0229 58C78.1735 35.3334 99.8324 15.5001 123.023 15.5001C134.523 15.5001 138.846 27.0426 138.023 35.0001C136.523 49.5001 121.248 78.6926 110.022 106.499C94.5598 144.802 78.5057 176.5 69.023 204C61.6538 225.371 64.023 235.5 69.023 242.5C74.023 249.5 85.0225 256.499 95.023 250C109.461 240.617 107.4 212.5 116.523 180C125.681 147.375 147.576 116.123 156.523 103C164.023 92 184.523 68.0001 196.523 58C191.023 71.0001 181.236 95.5 178.523 103L178.376 103.405C169.935 126.742 162.367 147.667 156.523 176.5C152.597 195.871 160.523 203 170.023 204C179.523 205 183.631 190.996 185.523 180C188.9 160.371 195.906 146.039 206.023 128.5C213.522 115.499 227.043 95.0612 236.523 84.0001C248.522 69.9991 258.023 60.5001 270.523 53.0001C266.523 62.8334 260.02 75.6669 254.023 90.5001C242.058 120.096 231.023 150 228.023 168C224.023 192 228.597 207.707 246.523 219C260.271 227.661 275.523 225 288.023 222C300.522 219 311.824 208.501 311.023 207.5C310.222 206.499 299.069 212.76 291.023 212.5C278.542 212.098 269.523 210 262.523 198C255.523 186 262.523 159.5 266.523 147.5C270.526 135.491 296.523 70.0001 302.023 53.0001C307.523 36.0001 293.38 29.2858 282.523 32.0001C270.523 35.0001 264.777 41.0083 250.523 53.0001C232.251 68.372 221.856 87.1668 212.023 100.5C217.356 86.3334 228.623 56.1 231.023 48.5001C234.023 39.0002 221.85 32.0001 212.023 32.0001C196.523 32.0001 184.9 49.8707 172.023 66.5001C159.388 82.816 149.19 98.3335 142.023 110C148.023 90 162.523 50.5001 167.523 35.0001C172.774 18.7234 160.067 -2.46594e-05 134.523 0C95.0229 3.81321e-05 66.4004 10.8707 29.523 58C-3.2762 99.9174 -0.476804 117.5 0.52299 127C2.41734 145 22.5229 158.5 36.523 160Z" fill="white"/>
<path d="M33.9005 274.376C21.2095 269.264 14.4005 256.21 12.9005 249.376C9.90049 256.043 11.8005 275.176 43.4005 298.376C82.9005 327.376 183.9 311.376 229.9 298.376C275.901 285.376 396.4 239.876 460.4 221.876C524.401 203.876 603.029 192.996 677.4 197.371C702.9 198.871 711.901 201.871 735.4 213.371C735.4 201.371 729.339 196.369 711.901 189.876C690.4 181.871 648.401 176.876 620.401 176.876C456.401 173.376 298.4 235.871 222.9 259.371C154.211 280.751 82.4004 293.915 33.9005 274.376Z" fill="white"/>
</svg>
